<svg width="960" height="600" version="1.1" xmlns="http://www.w3.org/2000/svg"><g></g><g transform="translate(480,300)scale(1.3150684833526611,1.3150684833526611)"><text text-anchor="middle" transform="translate(-13,141)rotate(11.374999534375034)skewX(1.5902773054867098e-15)scale(1.0000000221628318,1.0000000221628318)" style="font-size: 56px; font-family: monda; fill: rgb(132, 60, 57);">你</text><text text-anchor="middle" transform="translate(73,107)rotate(-28.124999645876578)scale(1.0000000273147278,1.0000000273147278)" style="font-size: 69px; font-family: monda; fill: rgb(214, 97, 107);">我</text><text text-anchor="middle" transform="translate(72,127)rotate(31.125001376571483)skewX(0)scale(0.9999999997023714,0.9999999997023714)" style="font-size: 10px; font-family: monda; fill: rgb(231, 150, 156);">fine</text><text text-anchor="middle" transform="translate(-59,88)rotate(1.4999999762315532)skewX(1.98784666018391e-16)scale(1.0000000079134816,1.0000000079134816)" style="font-size: 74px; font-family: monda; fill: rgb(123, 65, 115);">note</text><text text-anchor="middle" transform="translate(-162,7)rotate(40.999999105613654)skewX(0)scale(1.0000000144935726,1.0000000144935726)" style="font-size: 33px; font-family: monda; fill: rgb(165, 81, 148);">book</text><text text-anchor="middle" transform="translate(-50,129)rotate(-18.25000096973537)skewX(-3.1805547386288622e-15)scale(0.9999999820266118,0.9999999820266118)" style="font-size: 10px; font-family: monda; fill: rgb(206, 109, 189);">want</text><text text-anchor="middle" transform="translate(-54,-57)rotate(-28.12499964587658)scale(1.0000000273147278,1.0000000273147278)" style="font-size: 10px; font-family: monda; fill: rgb(222, 158, 214);">good</text><text text-anchor="middle" transform="translate(3,-87)rotate(11.374999534375034)skewX(1.5902773054867098e-15)scale(1.0000000221628318,1.0000000221628318)" style="font-size: 10px; font-family: monda; fill: rgb(57, 59, 121);">perfect</text><text text-anchor="middle" transform="translate(-220,-151)rotate(1.4999999762315532)skewX(1.98784666018391e-16)scale(1.0000000079134816,1.0000000079134816)" style="font-size: 10px; font-family: monda; fill: rgb(82, 84, 163);">life</text><text text-anchor="middle" transform="translate(87,-22)rotate(-18.250000969735368)skewX(-3.180554738628862e-15)scale(0.9999999820266118,0.9999999820266118)" style="font-size: 10px; font-family: monda; fill: rgb(107, 110, 207);">lite</text><text text-anchor="middle" transform="translate(9,-139)rotate(1.4999999762315532)skewX(1.98784666018391e-16)scale(1.0000000079134816,1.0000000079134816)" style="font-size: 10px; font-family: monda; fill: rgb(156, 158, 222);">cool</text><text text-anchor="middle" transform="translate(220,-55)rotate(40.999999105613654)skewX(0)scale(1.0000000144935726,1.0000000144935726)" style="font-size: 69px; font-family: monda; fill: rgb(99, 121, 57);">遇见</text><text text-anchor="middle" transform="translate(-229,-11)rotate(21.250001196822403)skewX(-3.1805547241056364e-15)scale(0.9999999865928672,0.9999999865928672)" style="font-size: 33px; font-family: monda; fill: rgb(140, 162, 82);">再见</text><text text-anchor="middle" transform="translate(226,143)rotate(-28.124999645876578)scale(1.0000000273147278,1.0000000273147278)" style="font-size: 46px; font-family: monda; fill: rgb(206, 219, 156);">她</text><text text-anchor="middle" transform="translate(-136,-22)rotate(40.999999105613654)skewX(0)scale(1.0000000144935726,1.0000000144935726)" style="font-size: 33px; font-family: monda; fill: rgb(140, 109, 49);">晴天</text><text text-anchor="middle" transform="translate(257,87)rotate(31.12500137657148)scale(0.9999999997023714,0.9999999997023714)" style="font-size: 46px; font-family: monda; fill: rgb(189, 158, 57);">end</text><text text-anchor="middle" transform="translate(25,-106)rotate(-8.375000614097722)scale(0.9999999759590584,0.9999999759590584)" style="font-size: 56px; font-family: monda; fill: rgb(231, 186, 82);">begin</text><text text-anchor="middle" transform="translate(105,-43)rotate(-8.375000614097722)scale(0.9999999759590584,0.9999999759590584)" style="font-size: 10px; font-family: monda; fill: rgb(231, 203, 148);">math</text><text text-anchor="middle" transform="translate(92,-79)rotate(31.12500137657148)scale(0.9999999997023714,0.9999999997023714)" style="font-size: 10px; font-family: monda; fill: rgb(132, 60, 57);">java</text><text text-anchor="middle" transform="translate(-240,-74)rotate(-18.25000096973537)skewX(-3.180554738628862e-15)scale(0.9999999820266118,0.9999999820266118)" style="font-size: 10px; font-family: monda; fill: rgb(173, 73, 74);">c++</text><text text-anchor="middle" transform="translate(-154,-72)rotate(11.374999534375034)skewX(1.5902773054867098e-15)scale(1.0000000221628318,1.0000000221628318)" style="font-size: 89px; font-family: monda; fill: rgb(231, 150, 156);">你好</text><text text-anchor="middle" transform="translate(31,-36)rotate(-8.375000614097722)skewX(0)scale(0.9999999759590584,0.9999999759590584)" style="font-size: 63px; font-family: monda; fill: rgb(123, 65, 115);">生活</text><text text-anchor="middle" transform="translate(169,95)rotate(-8.375000614097722)skewX(0)scale(0.9999999759590584,0.9999999759590584)" style="font-size: 56px; font-family: monda; fill: rgb(165, 81, 148);">扯淡</text><text text-anchor="middle" transform="translate(-274,6)rotate(31.125001376571475)scale(0.9999999997023714,0.9999999997023714)" style="font-size: 33px; font-family: monda; fill: rgb(99, 121, 57);">探索</text><text text-anchor="middle" transform="translate(109,40)rotate(1.4999999762315532)skewX(1.9878466601839103e-16)scale(1.0000000079134816,1.0000000079134816)" style="font-size: 100px; font-family: monda; fill: rgb(173, 73, 74);">finenote</text><text text-anchor="middle" transform="translate(145,-15)rotate(40.999999105613654)skewX(0)scale(1.0000000144935726,1.0000000144935726)" style="font-size: 10px; font-family: monda; fill: rgb(214, 97, 107);">python</text><text text-anchor="middle" transform="translate(156,115)rotate(-18.250000969735368)skewX(-3.180554738628862e-15)scale(0.9999999820266118,0.9999999820266118)" style="font-size: 10px; font-family: monda; fill: rgb(107, 110, 207);">yanlusha</text><text text-anchor="middle" transform="translate(103,76)rotate(-28.124999645876578)scale(1.0000000273147278,1.0000000273147278)" style="font-size: 10px; font-family: monda; fill: rgb(206, 109, 189);">雨</text><text text-anchor="middle" transform="translate(187,20)rotate(1.4999999762315532)skewX(1.9878466601839103e-16)scale(1.0000000079134816,1.0000000079134816)" style="font-size: 10px; font-family: monda; fill: rgb(57, 59, 121);">html</text><text text-anchor="middle" transform="translate(79,-99)rotate(-8.375000614097726)scale(0.9999999759590584,0.9999999759590584)" style="font-size: 10px; font-family: monda; fill: rgb(82, 84, 163);">javascript</text><text text-anchor="middle" transform="translate(105,-86)rotate(11.374999534375036)skewX(1.5902773054867094e-15)scale(1.0000000221628318,1.0000000221628318)" style="font-size: 10px; font-family: monda; fill: rgb(140, 162, 82);">畏惧</text><text text-anchor="middle" transform="translate(119,17)rotate(40.99999910561366)scale(1.0000000144935726,1.0000000144935726)" style="font-size: 10px; font-family: monda; fill: rgb(181, 207, 107);">勇敢</text><text text-anchor="middle" transform="translate(-86,-26)rotate(-28.124999645876578)scale(1.0000000273147278,1.0000000273147278)" style="font-size: 10px; font-family: monda; fill: rgb(206, 219, 156);">爱</text><text text-anchor="middle" transform="translate(192,-150)rotate(11.374999534375032)skewX(1.5902773054867098e-15)scale(1.0000000221628318,1.0000000221628318)" style="font-size: 10px; font-family: monda; fill: rgb(140, 109, 49);">智能</text><text text-anchor="middle" transform="translate(191,-130)rotate(11.374999534375036)skewX(1.5902773054867094e-15)scale(1.0000000221628318,1.0000000221628318)" style="font-size: 10px; font-family: monda; fill: rgb(189, 158, 57);">科技</text><text text-anchor="middle" transform="translate(253,151)rotate(11.374999534375034)skewX(1.5902773054867098e-15)scale(1.0000000221628318,1.0000000221628318)" style="font-size: 10px; font-family: monda; fill: rgb(231, 186, 82);">学校</text><text text-anchor="middle" transform="translate(-43,139)rotate(-28.124999645876578)scale(1.0000000273147278,1.0000000273147278)" style="font-size: 10px; font-family: monda; fill: rgb(231, 203, 148);">社会</text><text text-anchor="middle" transform="translate(-169,58)rotate(1.4999999762315532)skewX(1.98784666018391e-16)scale(1.0000000079134816,1.0000000079134816)" style="font-size: 33px; font-family: monda; fill: rgb(132, 60, 57);">find</text><text text-anchor="middle" transform="translate(221,-16)rotate(-18.250000969735375)skewX(-3.180554738628862e-15)scale(0.9999999820266118,0.9999999820266118)" style="font-size: 10px; font-family: monda; fill: rgb(173, 73, 74);">好</text><text text-anchor="middle" transform="translate(135,-133)rotate(11.374999534375036)skewX(1.5902773054867094e-15)scale(1.0000000221628318,1.0000000221628318)" style="font-size: 10px; font-family: monda; fill: rgb(231, 150, 156);">love</text></g></svg>